<?xml version="1.0" encoding="UTF-8"?>
<svg width="120" height="120" viewBox="0 0 120 120" xmlns="http://www.w3.org/2000/svg">
  <!-- Kompakte Version für HACS -->
  <rect width="120" height="120" rx="12" fill="#03a9f4"/>
  
  <!-- Kalender -->
  <rect x="20" y="30" width="80" height="70" rx="4" fill="#ffffff"/>
  
  <!-- Header -->
  <rect x="20" y="30" width="80" height="16" rx="4" fill="#1976d2"/>
  
  <!-- Bindungsringe -->
  <circle cx="35" cy="20" r="4" fill="#757575"/>
  <circle cx="60" cy="20" r="4" fill="#757575"/>
  <circle cx="85" cy="20" r="4" fill="#757575"/>
  
  <!-- Ring-Löcher -->
  <circle cx="35" cy="20" r="2" fill="#ffffff"/>
  <circle cx="60" cy="20" r="2" fill="#ffffff"/>
  <circle cx="85" cy="20" r="2" fill="#ffffff"/>
  
  <!-- Stundenplan-Einträge -->
  <rect x="25" y="52" width="70" height="8" fill="#e3f2fd"/>
  <rect x="25" y="64" width="70" height="8" fill="#f3e5f5"/>
  <rect x="25" y="76" width="70" height="8" fill="#e8f5e8"/>
  <rect x="25" y="88" width="70" height="8" fill="#fff3e0"/>
  
  <!-- Zeit-Punkte -->
  <circle cx="30" cy="56" r="2" fill="#03a9f4"/>
  <circle cx="30" cy="68" r="2" fill="#9c27b0"/>
  <circle cx="30" cy="80" r="2" fill="#4caf50"/>
  <circle cx="30" cy="92" r="2" fill="#ff9800"/>
</svg>